<svg width="15" height="14" viewBox="0 0 15 14" fill="none" xmlns="http://www.w3.org/2000/svg">
<path d="M7 1.5C7 1.36739 7.05268 1.24021 7.14645 1.14645C7.24021 1.05268 7.36739 1 7.5 1H14.5C14.6326 1 14.7598 1.05268 14.8536 1.14645C14.9473 1.24021 15 1.36739 15 1.5V2.5C15 2.63261 14.9473 2.75979 14.8536 2.85355C14.7598 2.94732 14.6326 3 14.5 3H7.5C7.36739 3 7.24021 2.94732 7.14645 2.85355C7.05268 2.75979 7 2.63261 7 2.5V1.5ZM4.47035e-08 11C4.47035e-08 10.2044 0.316071 9.44129 0.87868 8.87868C1.44129 8.31607 2.20435 8 3 8C3.79565 8 4.55871 8.31607 5.12132 8.87868C5.68393 9.44129 6 10.2044 6 11C6 11.7956 5.68393 12.5587 5.12132 13.1213C4.55871 13.6839 3.79565 14 3 14C2.20435 14 1.44129 13.6839 0.87868 13.1213C0.316071 12.5587 4.47035e-08 11.7956 4.47035e-08 11V11ZM7 9.5C7 9.36739 7.05268 9.24021 7.14645 9.14645C7.24021 9.05268 7.36739 9 7.5 9H14.5C14.6326 9 14.7598 9.05268 14.8536 9.14645C14.9473 9.24021 15 9.36739 15 9.5V10.5C15 10.6326 14.9473 10.7598 14.8536 10.8536C14.7598 10.9473 14.6326 11 14.5 11H7.5C7.36739 11 7.24021 10.9473 7.14645 10.8536C7.05268 10.7598 7 10.6326 7 10.5V9.5ZM7 4.5C7 4.36739 7.05268 4.24021 7.14645 4.14645C7.24021 4.05268 7.36739 4 7.5 4H12.5C12.6326 4 12.7598 4.05268 12.8536 4.14645C12.9473 4.24021 13 4.36739 13 4.5C13 4.63261 12.9473 4.75979 12.8536 4.85355C12.7598 4.94732 12.6326 5 12.5 5H7.5C7.36739 5 7.24021 4.94732 7.14645 4.85355C7.05268 4.75979 7 4.63261 7 4.5ZM7 12.5C7 12.3674 7.05268 12.2402 7.14645 12.1464C7.24021 12.0527 7.36739 12 7.5 12H12.5C12.6326 12 12.7598 12.0527 12.8536 12.1464C12.9473 12.2402 13 12.3674 13 12.5C13 12.6326 12.9473 12.7598 12.8536 12.8536C12.7598 12.9473 12.6326 13 12.5 13H7.5C7.36739 13 7.24021 12.9473 7.14645 12.8536C7.05268 12.7598 7 12.6326 7 12.5ZM3 0C2.60603 -5.87054e-09 2.21593 0.0775973 1.85195 0.228361C1.48797 0.379125 1.15726 0.600104 0.87868 0.87868C0.600104 1.15726 0.379126 1.48797 0.228361 1.85195C0.0775973 2.21593 0 2.60603 0 3C0 3.39397 0.0775973 3.78407 0.228361 4.14805C0.379126 4.51203 0.600104 4.84274 0.87868 5.12132C1.15726 5.3999 1.48797 5.62087 1.85195 5.77164C2.21593 5.9224 2.60603 6 3 6C3.79565 6 4.55871 5.68393 5.12132 5.12132C5.68393 4.55871 6 3.79565 6 3C6 2.20435 5.68393 1.44129 5.12132 0.87868C4.55871 0.31607 3.79565 1.18561e-08 3 0V0ZM3 4.5C2.60218 4.5 2.22064 4.34196 1.93934 4.06066C1.65804 3.77936 1.5 3.39782 1.5 3C1.5 2.60218 1.65804 2.22064 1.93934 1.93934C2.22064 1.65804 2.60218 1.5 3 1.5C3.39782 1.5 3.77936 1.65804 4.06066 1.93934C4.34196 2.22064 4.5 2.60218 4.5 3C4.5 3.39782 4.34196 3.77936 4.06066 4.06066C3.77936 4.34196 3.39782 4.5 3 4.5Z" fill="#C91B28"/>
</svg>
